<svg xmlns="http://www.w3.org/2000/svg" viewBox="0 0 256 256">
  <rect width="256" height="256" rx="48" fill="#F4F8EE"/>
  <path d="M72 88h112a24 24 0 0 1 24 24v92a24 24 0 0 1-24 24H72a24 24 0 0 1-24-24V112a24 24 0 0 1 24-24Z" fill="#C89360"/>
  <path d="M78 88s12-26 34-26 34 26 34 26H78Z" fill="#A56E48"/>
  <circle cx="96" cy="148" r="26" fill="#E34E4E"/>
  <path d="M92 116c5-10 26-22 40-14" stroke="#4A8C47" stroke-width="12" stroke-linecap="round" fill="none"/>
  <path d="M140 160c12-24 8-44 24-32c16 12 14 38 0 52s-32 18-46 4" fill="#F4C040"/>
  <path d="M166 122c0-14 18-20 26-12" stroke="#4A8C47" stroke-width="12" stroke-linecap="round" fill="none"/>
</svg>
